<svg width="121" height="32" viewBox="0 0 121 32" fill="none" xmlns="http://www.w3.org/2000/svg">
<g clip-path="url(#clip0_1049_74)">
<path d="M89.1572 31.4538V9H103.939V13.3207H93.6613V18.5604H103.939V22.8262H93.6067V31.4538H89.1572Z" fill="#FB8C00" stroke="black"/>
<path d="M105.973 16.2971L110.217 14.9666V31.4538H105.973V16.2971Z" fill="#FB8C00" stroke="black"/>
<path d="M112.265 11.8256V22.6616C112.265 27.5172 116.182 31.4401 121 31.4401V27.4898C118.584 27.4898 116.632 25.5283 116.632 23.1005V19.4245H121V15.3096H116.632V10.1248L112.265 11.8256Z" fill="#FB8C00" stroke="black"/>
<path d="M0 10.3048H3.09826V31.2224H0V10.3048ZM2.56596 20.3727L3.45314 21.1957H2.56596V19.4948H3.45314L2.56596 20.2492L11.3285 10.3048H15.3139L6.37396 20.2492L15.6278 31.2224H11.5469L2.56596 20.3727Z" fill="black" stroke="black"/>
<path d="M28.0756 28.0676C27.6252 29.2472 26.9564 30.1251 26.0966 30.7286C25.2367 31.3321 24.1857 31.6339 22.9573 31.6339C21.6198 31.6339 20.4187 31.291 19.3541 30.6051C18.2895 29.9193 17.4432 28.9729 16.8427 27.7795C16.2285 26.5725 15.9282 25.242 15.9282 23.7743C15.9282 22.3067 16.2285 20.9488 16.8427 19.7554C17.4569 18.5621 18.2895 17.6294 19.3541 16.9436C20.4187 16.2577 21.6198 15.9148 22.9573 15.9148C24.1857 15.9148 25.2367 16.2166 26.0966 16.8201C26.9701 17.4236 27.6252 18.3152 28.0756 19.4811C28.526 20.6607 28.7581 22.0872 28.7581 23.7743L27.2977 18.5621H29.1129V28.9866H27.2977L28.7581 23.7743C28.7581 25.4615 28.526 26.888 28.0756 28.0676ZM25.7144 28.191C26.3968 27.7521 26.9155 27.1623 27.2977 26.3942C27.6798 25.6261 27.8709 24.7482 27.8709 23.7743C27.8709 22.8005 27.6798 21.9226 27.2977 21.1545C26.9155 20.3864 26.3968 19.7829 25.7144 19.3577C25.032 18.9187 24.2676 18.713 23.4078 18.713C22.5479 18.713 21.7699 18.9325 21.0875 19.3577C20.4187 19.7966 19.8864 20.3864 19.5042 21.1545C19.122 21.9226 18.931 22.8005 18.931 23.7743C18.931 24.7482 19.122 25.5986 19.5042 26.3805C19.8864 27.1623 20.4187 27.7658 21.0875 28.191C21.7563 28.63 22.5342 28.8357 23.4078 28.8357C24.2813 28.8357 25.0456 28.6162 25.7144 28.191ZM27.7481 31.2224V28.2185L28.3759 23.7743L27.7481 19.8103V16.3126H30.7235V31.2224L27.7481 31.2224Z" fill="black"/>
<path d="M28.7581 23.7743C28.7581 22.0872 28.526 20.6607 28.0756 19.4811C27.6252 18.3152 26.9701 17.4236 26.0966 16.8201C25.2367 16.2166 24.1857 15.9148 22.9573 15.9148C21.6198 15.9148 20.4187 16.2577 19.3541 16.9436C18.2895 17.6294 17.4569 18.5621 16.8427 19.7554C16.2285 20.9488 15.9282 22.3067 15.9282 23.7743C15.9282 25.242 16.2285 26.5725 16.8427 27.7795C17.4432 28.9729 18.2895 29.9193 19.3541 30.6051C20.4187 31.291 21.6198 31.6339 22.9573 31.6339C24.1857 31.6339 25.2367 31.3321 26.0966 30.7286C26.9564 30.1251 27.6252 29.2472 28.0756 28.0676C28.526 26.888 28.7581 25.4615 28.7581 23.7743ZM28.7581 23.7743L27.2977 18.5621H29.1129V28.9866H27.2977L28.7581 23.7743ZM25.7144 28.191C26.3968 27.7521 26.9155 27.1623 27.2977 26.3942C27.6798 25.6261 27.8709 24.7482 27.8709 23.7743C27.8709 22.8005 27.6798 21.9226 27.2977 21.1545C26.9155 20.3864 26.3968 19.7829 25.7144 19.3577C25.032 18.9187 24.2676 18.713 23.4078 18.713C22.5479 18.713 21.7699 18.9325 21.0875 19.3577C20.4187 19.7966 19.8864 20.3864 19.5042 21.1545C19.122 21.9226 18.931 22.8005 18.931 23.7743C18.931 24.7482 19.122 25.5986 19.5042 26.3805C19.8864 27.1623 20.4187 27.7658 21.0875 28.191C21.7563 28.63 22.5342 28.8357 23.4078 28.8357C24.2813 28.8357 25.0456 28.6162 25.7144 28.191ZM27.7481 31.2224V28.2185L28.3759 23.7743L27.7481 19.8103V16.3126H30.7235V31.2224L27.7481 31.2224Z" stroke="black"/>
<path d="M32.375 16.3126H35.4187L40.032 31.2224L38.244 27.8619H40.032V31.2224H37.3431L32.375 16.3126ZM42.2704 16.3126H44.6316L44.4814 18.4524V21.3466H42.8845L44.4814 18.4524L40.7963 31.2224H38.2576L42.2704 16.3126ZM42.8846 18.4524L42.7617 16.3126H45.1229L49.1357 31.2224L47.334 27.8619H49.1357V31.2224H46.5697L42.8846 18.4524ZM51.961 16.3126H55.0046L50.0365 31.2224H47.334L51.961 16.3126Z" fill="black"/>
<path d="M40.032 31.2224L35.4187 16.3126H32.375L37.3431 31.2224H40.032ZM40.032 31.2224L38.244 27.8619H40.032V31.2224ZM44.4814 18.4524L44.6316 16.3126H42.2704L38.2576 31.2224H40.7963L44.4814 18.4524ZM44.4814 18.4524V21.3466H42.8845L44.4814 18.4524ZM49.1357 31.2224L45.1229 16.3126H42.7617L42.8846 18.4524L46.5697 31.2224H49.1357ZM49.1357 31.2224L47.334 27.8619H49.1357V31.2224ZM51.961 16.3126H55.0046L50.0365 31.2224H47.334L51.961 16.3126Z" stroke="black"/>
<path d="M67.4794 28.0676C67.029 29.2472 66.3602 30.1251 65.5004 30.7286C64.6405 31.3321 63.5895 31.6339 62.3612 31.6339C61.0236 31.6339 59.8225 31.291 58.7579 30.6051C57.6933 29.9193 56.847 28.9729 56.2465 27.7795C55.6323 26.5725 55.332 25.242 55.332 23.7743C55.332 22.3067 55.6323 20.9488 56.2465 19.7554C56.8607 18.5621 57.6933 17.6294 58.7579 16.9436C59.8225 16.2577 61.0236 15.9148 62.3612 15.9148C63.5895 15.9148 64.6405 16.2166 65.5004 16.8201C66.3739 17.4236 67.029 18.3152 67.4794 19.4811C67.9298 20.6607 68.1619 22.0872 68.1619 23.7743L66.7015 18.5621H68.5167V28.9866H66.7015L68.1619 23.7743C68.1619 25.4615 67.9298 26.888 67.4794 28.0676ZM65.1318 28.191C65.8143 27.7521 66.3329 27.1623 66.7151 26.3942C67.0973 25.6261 67.2883 24.7482 67.2883 23.7743C67.2883 22.8005 67.0973 21.9226 66.7151 21.1545C66.3329 20.3864 65.8143 19.7829 65.1318 19.3577C64.4494 18.9187 63.6851 18.713 62.8252 18.713C61.9653 18.713 61.1873 18.9325 60.5049 19.3577C59.8361 19.7966 59.3038 20.3864 58.9217 21.1545C58.5395 21.9226 58.3484 22.8005 58.3484 23.7743C58.3484 24.7482 58.5395 25.5986 58.9217 26.3805C59.3038 27.1623 59.8361 27.7658 60.5049 28.191C61.1737 28.63 61.9517 28.8357 62.8252 28.8357C63.6987 28.8357 64.4631 28.6162 65.1318 28.191ZM67.1655 31.2224V28.2185L67.7933 23.7743L67.1655 19.8103V16.3126H70.1409V31.2224L67.1655 31.2224Z" fill="black"/>
<path d="M68.1619 23.7743C68.1619 22.0872 67.9299 20.6607 67.4794 19.4811C67.029 18.3152 66.3739 17.4236 65.5004 16.8201C64.6405 16.2166 63.5895 15.9148 62.3612 15.9148C61.0236 15.9148 59.8225 16.2577 58.7579 16.9436C57.6933 17.6294 56.8607 18.5621 56.2465 19.7554C55.6323 20.9488 55.332 22.3067 55.332 23.7743C55.332 25.242 55.6323 26.5725 56.2465 27.7795C56.847 28.9729 57.6933 29.9193 58.7579 30.6051C59.8225 31.291 61.0236 31.6339 62.3612 31.6339C63.5895 31.6339 64.6405 31.3321 65.5004 30.7286C66.3602 30.1251 67.029 29.2472 67.4794 28.0676C67.9299 26.888 68.1619 25.4615 68.1619 23.7743ZM68.1619 23.7743L66.7015 18.5621H68.5167V28.9866H66.7015L68.1619 23.7743ZM65.1318 28.191C65.8143 27.7521 66.3329 27.1623 66.7151 26.3942C67.0973 25.6261 67.2883 24.7482 67.2883 23.7743C67.2883 22.8005 67.0973 21.9226 66.7151 21.1545C66.3329 20.3864 65.8143 19.7829 65.1318 19.3577C64.4494 18.9187 63.6851 18.713 62.8252 18.713C61.9653 18.713 61.1873 18.9325 60.5049 19.3577C59.8361 19.7966 59.3038 20.3864 58.9217 21.1545C58.5395 21.9226 58.3484 22.8005 58.3484 23.7743C58.3484 24.7482 58.5395 25.5986 58.9217 26.3805C59.3038 27.1623 59.8361 27.7658 60.5049 28.191C61.1737 28.63 61.9517 28.8357 62.8252 28.8357C63.6987 28.8357 64.4631 28.6162 65.1318 28.191ZM67.1655 31.2224V28.2185L67.7933 23.7743L67.1655 19.8103V16.3126H70.1409V31.2224L67.1655 31.2224Z" stroke="black"/>
<path d="M73.1162 16.3126H76.078V31.2224H73.1162V16.3126ZM82.0971 19.728C81.5648 19.0422 80.8005 18.713 79.8178 18.713C79.149 18.713 78.5348 18.8776 77.9615 19.2068C77.3883 19.536 76.9379 20.0435 76.5966 20.7019C76.2554 21.374 76.078 22.197 76.078 23.1983L75.7095 20.7293V18.5073H76.542L75.7095 20.7293C75.7095 19.7829 75.9142 18.9462 76.3373 18.2192C76.7604 17.4922 77.3337 16.9299 78.098 16.5184C78.8487 16.1206 79.7085 15.9149 80.6776 15.9149C81.7832 15.9149 82.7249 16.1618 83.4893 16.6693C84.2536 17.1768 84.8541 17.89 85.25 18.8227C85.6458 19.7555 85.8505 20.8802 85.8505 22.197V31.2224H82.8887V22.6496C82.8887 21.374 82.6157 20.3864 82.0971 19.7143L82.0971 19.728Z" fill="black"/>
<path d="M75.7095 20.7293L76.078 23.1983C76.078 22.197 76.2554 21.374 76.5966 20.7019C76.9379 20.0435 77.3883 19.536 77.9615 19.2068C78.5348 18.8776 79.149 18.713 79.8178 18.713C80.8005 18.713 81.5648 19.0422 82.0971 19.728L82.0971 19.7143C82.6157 20.3864 82.8887 21.374 82.8887 22.6496V31.2224H85.8505V22.197C85.8505 20.8802 85.6458 19.7555 85.25 18.8227C84.8541 17.89 84.2536 17.1768 83.4893 16.6693C82.7249 16.1618 81.7832 15.9149 80.6776 15.9149C79.7085 15.9149 78.8487 16.1206 78.098 16.5184C77.3337 16.9299 76.7604 17.4922 76.3373 18.2192C75.9142 18.9462 75.7095 19.7829 75.7095 20.7293ZM75.7095 20.7293V18.5073H76.542L75.7095 20.7293ZM73.1162 16.3126H76.078V31.2224H73.1162V16.3126Z" stroke="black"/>
</g>
<defs>
<clipPath id="clip0_1049_74">
<rect width="121" height="32" fill="white"/>
</clipPath>
</defs>
</svg>
